<svg width="356" height="311" viewBox="0 0 356 311" fill="none" xmlns="http://www.w3.org/2000/svg">
<rect width="356" height="311" fill="white"/>
<mask id="mask0_157_4" style="mask-type:luminance" maskUnits="userSpaceOnUse" x="38" y="17" width="279" height="279">
<path d="M38.8794 17H316.736V295.2H38.8794V17Z" fill="white"/>
</mask>
<g mask="url(#mask0_157_4)">
<path d="M178.184 295.004C159.406 295.004 141.234 291.344 124.096 284.085C107.56 277.081 92.6913 267.055 79.927 254.322C67.1584 241.553 57.1316 226.689 50.1588 210.153C42.905 193.011 39.2448 174.803 39.2448 156.064C39.2448 155.779 39.49 155.529 39.7753 155.529C40.0606 155.529 40.3103 155.779 40.3103 156.064C40.3103 232.132 102.188 293.974 178.22 293.974C254.252 293.974 316.094 232.097 316.094 156.064C316.094 79.9963 254.217 18.1191 178.184 18.1191C167.551 18.1191 156.918 19.3273 146.677 21.7437C146.392 21.815 146.107 21.6367 146.035 21.3513C145.964 21.0705 146.142 20.7851 146.428 20.7138C156.775 18.2929 167.444 17.0847 178.184 17.0847C196.963 17.0847 215.135 20.7495 232.273 28.0032C248.809 35.0072 263.677 45.0385 276.441 57.767C289.21 70.5357 299.237 85.3998 306.21 101.936C313.463 119.078 317.124 137.286 317.124 156.029C317.124 174.767 313.463 192.975 306.21 210.117C299.201 226.653 289.174 241.517 276.441 254.286C263.677 267.055 248.809 277.081 232.273 284.05C215.135 291.344 196.927 295.004 178.184 295.004Z" fill="#B27409"/>
</g>
<mask id="mask1_157_4" style="mask-type:luminance" maskUnits="userSpaceOnUse" x="12" y="24" width="132" height="126">
<path d="M12 24.3295H143.882V149.876H12V24.3295Z" fill="white"/>
</mask>
<g mask="url(#mask1_157_4)">
<path d="M142.054 25.3014C138.211 27.0447 134.087 27.8249 129.999 28.6452C125.799 29.4611 121.675 30.4909 117.729 32.0558C114.457 33.3755 111.185 34.7977 108.839 37.5351C106.633 40.0942 104.961 43.1169 102.295 45.2168C102.223 45.2525 102.188 45.3238 102.188 45.3952C102.045 45.4665 101.902 45.5378 101.76 45.6047C101.653 45.676 101.581 45.7474 101.546 45.8544C94.9339 48.8771 89.1737 54.1424 84.1938 59.2249C78.4693 65.1322 73.1683 71.5299 68.2954 78.1104C67.5508 79.1403 66.8018 80.1746 66.0573 81.2045C66.6235 79.9606 67.1942 78.6811 67.6935 77.4015C69.508 72.8496 70.7876 68.0479 71.4251 63.2107C72.1028 58.3377 71.7104 53.6074 71.7818 48.7344C71.8174 45.9257 72.2098 43.1883 72.9543 40.4865C73.525 38.2797 74.8402 35.8989 74.9472 33.6564C74.9472 33.585 74.9115 33.5494 74.8759 33.5137C74.9115 33.3755 74.7332 33.2328 74.5905 33.3398C70.6806 36.3982 67.0515 39.6662 64.8847 44.2182C62.7492 48.7344 61.1487 54.0354 60.5111 58.9797C59.7264 64.7399 60.6137 70.5 60.899 76.2602C61.0417 78.9619 61.0773 81.6682 60.792 84.3699C60.5111 87.143 59.5838 89.5282 58.8036 92.1229C53.0389 101.512 48.0991 111.468 44.684 121.815C43.9707 123.987 43.2975 126.153 42.7268 128.36C42.6555 127.647 42.6198 126.974 42.5128 126.296C42.0179 122.457 40.9123 118.686 39.2761 115.168C39.1022 114.776 38.8882 114.383 38.6742 113.991C38.6742 113.92 38.6385 113.817 38.6385 113.746C38.8525 112.462 38.3175 110.968 38.4245 109.617C38.5672 107.593 39.1379 105.565 40.0964 103.75C41.6613 100.799 44.7197 98.9843 45.9279 95.8902C47.3858 96.6392 49.2717 95.9972 50.5869 95.217C52.0091 94.361 52.9319 92.8675 52.5797 91.1599C52.2231 89.4212 50.4799 88.1015 48.7723 87.999C46.9934 87.892 45.5356 89.2072 44.898 90.7721C44.2917 92.3013 44.1847 94.6107 45.6069 95.7476C44.6127 97.7404 42.6912 98.8773 41.2333 100.442C39.9894 101.793 38.9952 103.429 38.2819 105.137C38.1035 105.6 37.9252 106.1 37.7825 106.595C37.9252 104.887 38.2462 103.184 38.5315 101.512C39.1735 97.7048 39.4544 93.8662 38.9239 90.0587C38.9595 90.0231 38.9952 89.9517 38.9952 89.8804C40.6314 89.1715 42.4058 88.1015 43.1192 86.3628C43.7612 84.7979 43.5115 82.9477 42.4772 81.5968C41.9823 80.9548 41.3046 80.3886 40.5244 80.1033C39.8111 79.8536 38.7812 79.7466 38.1392 80.2103C37.4303 80.7052 37.038 81.5612 36.7527 82.3414C36.396 83.34 36.1151 84.4412 36.0438 85.5068C35.9011 87.3927 36.6457 89.5639 38.6385 90.1301C38.5315 92.3369 38.6385 94.575 38.4245 96.7819C38.2105 99.3053 37.6087 101.757 37.1807 104.25C36.8597 106.064 36.503 108.445 36.6457 110.616C33.5159 105.707 29.7843 101.156 28.2194 95.4667C28.5404 94.575 28.6786 93.6165 28.9283 92.6892C29.1423 91.8376 29.4989 90.9504 29.4276 90.0231C29.3206 88.3869 27.7201 87.2857 26.2265 87.0003C24.6617 86.715 23.3108 87.4997 22.7044 88.9575C22.1026 90.4511 22.4949 92.0516 23.3821 93.3668C24.305 94.7177 25.9412 96.3539 27.7557 95.7832C28.3977 100.126 30.5645 103.786 32.8784 107.415C28.3977 105.529 24.519 102.863 20.4664 100.126C20.4664 100.019 20.395 99.9117 20.288 99.876C20.2524 99.876 20.2167 99.876 20.2167 99.8403C19.86 98.913 19.9314 97.9188 19.7887 96.9246C19.6817 96.1042 19.4008 95.3597 18.9015 94.7177C17.9429 93.5095 16.2711 92.8318 14.7775 93.2955C13.3553 93.7235 12.214 95.11 12.107 96.5679C12 98.2398 13.07 100.161 14.4565 101.084C15.2367 101.619 16.2711 101.829 17.2296 101.584C18.1882 101.334 19.1155 100.054 20.181 100.407C20.2167 100.407 20.2524 100.407 20.2524 100.407C23.8814 104.143 28.8926 106.737 33.7299 108.623C34.7954 110.331 35.9011 112.003 36.824 113.782C38.6385 117.263 39.9181 121.035 40.5957 124.91C40.6314 125.052 40.6314 125.195 40.6671 125.338C40.4531 125.017 40.2391 124.731 40.0251 124.45C39.0309 122.921 37.9965 121.459 36.7883 120.108C34.7598 117.834 32.2364 116.055 29.1423 115.663V115.627C29.1779 113.955 29.1423 112.181 28.1124 110.794C27.6844 110.224 27.1182 109.76 26.4405 109.51C25.6915 109.265 24.6973 109.123 23.9528 109.368C22.4949 109.831 21.8172 111.753 22.0669 113.14C22.1382 113.532 22.3166 113.884 22.4949 114.276C22.7044 114.74 22.6331 115.168 22.6331 115.663C22.6331 116.376 23.0254 116.942 23.5961 117.299C25.3037 118.333 27.2564 116.84 28.8569 116.234C28.9996 116.162 29.0709 116.055 29.0709 115.948C32.486 116.84 35.0451 119.078 37.0737 121.887C37.9252 123.059 38.7099 124.308 39.4901 125.552C39.9894 126.332 40.4531 127.223 41.0193 128.004C41.0906 128.967 41.1619 129.925 41.1619 130.884C41.1976 132.377 40.8766 134.085 41.0906 135.578C40.6671 137.714 40.3104 139.845 39.9894 141.98C39.7041 144.116 39.1735 146.318 39.7397 148.454C39.9181 149.092 40.9479 149.341 41.2689 148.668C42.0179 146.996 42.0536 145.324 42.3033 143.51C42.5842 141.374 42.9052 139.243 43.3332 137.108C43.6898 135.222 44.1134 133.34 44.577 131.454C50.5869 131.454 56.1687 129.461 60.9703 125.873C63.7077 123.844 66.2356 121.815 69.5437 120.821C72.4594 119.965 75.4822 119.756 78.3266 118.543C87.6802 114.562 91.4475 103.465 100.73 99.1983C101.015 99.0557 100.801 98.5608 100.516 98.6678C94.2919 100.942 87.4305 101.619 80.9214 102.685C75.1969 103.608 69.4724 104.887 64.1357 107.272C55.8522 111.004 49.9092 118.191 45.9636 126.26C46.0349 126.046 46.0706 125.837 46.1419 125.623C48.4513 117.87 51.4072 110.188 55.0318 102.934C56.9534 99.0913 59.0131 95.2884 61.2557 91.5879C62.4639 90.8434 63.3912 89.5951 64.4567 88.7079C65.8789 87.4997 67.4438 86.3984 69.0444 85.3998C70.2882 84.6196 71.5678 83.9062 72.883 83.233C74.1313 83.3044 75.3395 83.3044 76.5834 83.3757C76.7261 83.447 76.8687 83.5139 77.0471 83.5852C77.3993 83.7992 77.7916 84.0132 78.1126 84.2986C78.6476 84.7266 79.1782 85.2214 79.7132 85.6851C79.6775 85.7564 79.6418 85.7921 79.6062 85.8634C79.3922 86.0061 79.2138 86.2201 79.0355 86.3984C78.2553 87.1787 78.0413 88.6009 78.4693 89.6307C79.0355 90.9861 80.85 91.6593 82.0226 90.6651C83.2709 89.6307 83.3378 87.464 82.4149 86.2201C82.0226 85.6494 81.385 85.0119 80.636 85.0788C80.4577 85.1144 80.2794 85.1501 80.1055 85.2571C79.6418 84.6552 79.1425 84.1202 78.5763 83.6566C78.7189 83.6922 78.8572 83.6922 78.9998 83.7279C80.8857 84.1559 82.7002 84.7622 84.5504 85.2928C84.5148 85.3641 84.4434 85.3998 84.4078 85.4711C84.3364 85.5781 84.1938 85.7564 84.1581 85.9348C83.7301 86.9647 84.0868 88.2442 85.081 88.8505C86.2937 89.5639 87.8897 89.0289 88.5317 87.8207C89.1024 86.7863 89.0667 84.7622 87.8541 84.1559C87.0382 83.7636 85.1523 83.9062 84.7288 84.8692C81.9869 83.6209 78.3979 82.056 75.1255 82.0917C76.4051 81.4898 77.7203 80.8835 78.9998 80.3173C80.8857 79.4613 82.8072 78.6811 84.7288 77.8251C86.0083 78.2887 87.5019 78.2174 88.8171 78.2887C90.8456 78.3957 92.8697 78.5384 94.8626 78.4314C97.921 79.0689 100.088 81.7752 103.146 82.4484C103.11 82.5554 103.11 82.6624 103.146 82.7337C102.544 84.5126 103.008 86.2558 104.925 87.036C106.561 87.7137 109.513 87.5353 110.547 85.8634C111.47 84.3342 110.614 81.5968 108.982 80.8478C107.239 80.0319 104.854 80.7408 103.503 82.0204C102.152 81.1332 100.658 80.4912 99.2719 79.6039C98.5229 79.1046 97.7783 78.6097 96.9937 78.2174C99.4145 77.8964 101.974 77.1875 103.788 75.6583C104.038 77.0449 105.995 77.4684 107.275 77.3659C107.983 77.2945 108.946 77.2232 109.406 76.5812C109.941 75.8723 110.226 74.731 110.083 73.8794C109.834 72.3859 108.304 70.6784 106.704 70.8924C104.711 71.142 103.574 73.2731 103.574 75.1233C102.081 75.8723 100.623 76.5812 98.9865 76.9735C97.2433 77.3659 95.5001 77.4327 93.7257 77.4327C92.0538 77.4327 90.4176 77.3302 88.7457 77.2232C88.0324 77.1875 87.2879 77.0805 86.5389 77.0449C87.3949 76.6525 88.2464 76.2602 89.1024 75.8723C89.2451 75.908 89.4189 75.8723 89.5616 75.7297C89.5973 75.694 89.6329 75.6583 89.6329 75.6227C92.7984 74.0934 95.8211 72.3146 98.4872 70.072C99.2362 71.249 102.865 69.965 103.61 69.5058C105.424 68.3645 106.383 65.3774 104.925 63.603C103.396 61.7171 100.801 62.6757 99.3789 64.2049C98.456 65.2035 97.1363 68.2619 98.349 69.5415C95.8924 71.2134 93.2977 72.5999 90.7029 73.8794C91.2335 72.5286 91.4832 70.9637 91.9112 69.6128C92.6914 67.0136 93.7257 64.6329 95.2549 62.426C95.2549 62.426 95.2906 62.426 95.2906 62.4617C95.3619 62.533 95.3976 62.5687 95.4644 62.64C96.9268 63.7457 99.9852 62.2164 100.373 60.5802C100.658 59.5459 100.23 58.2664 99.5929 57.4148C98.9509 56.5232 97.707 56.4518 96.7484 56.8085C95.7854 57.1652 95.1836 57.8384 94.8626 58.6587C94.3989 59.5459 94.4702 60.9324 94.8982 61.8598C94.8982 61.8954 94.8982 61.8954 94.9339 61.9311C93.3334 63.4603 92.3392 65.3774 91.5902 67.4416C91.1622 68.6142 90.8099 69.8268 90.4889 71.035C90.1679 72.2432 89.9183 73.5941 89.2094 74.624C85.1523 76.5099 81.0284 78.1104 76.8331 79.8179C73.4893 81.2045 70.2526 82.805 67.2298 84.7622C66.1643 85.4711 65.0943 86.2201 64.1001 87.036C69.508 78.6454 75.6249 70.6427 82.1652 63.2107C83.9441 61.1821 85.7943 59.1937 87.7159 57.3078C89.8469 56.4162 92.0182 55.6716 94.2919 55.3506C96.7128 54.9939 99.0935 55.1723 101.51 55.4576C106.347 55.9569 111.22 56.6658 116.093 56.4875C120.574 56.3448 124.947 55.4933 129 53.5004C133.164 51.4763 137.038 48.8414 141.198 46.746C141.269 46.7817 141.305 46.7817 141.376 46.7817C141.448 46.7817 141.483 46.746 141.555 46.7104C141.626 46.6747 141.662 46.639 141.697 46.6034C141.769 46.532 141.804 46.425 141.769 46.318C141.876 46.211 141.876 45.9614 141.662 45.9257C136.789 44.8245 131.421 44.8958 126.441 45.0028C121.425 45.1098 116.378 45.569 111.47 46.532C106.989 47.3836 102.616 48.6988 98.4203 50.4777C96.3561 51.3693 94.3276 52.3279 92.3748 53.4291C91.9825 53.6431 91.5545 53.8927 91.1265 54.1067C91.3762 53.8927 91.5902 53.6787 91.8398 53.5004C95.0052 50.7987 98.456 48.6274 102.009 46.532C102.081 46.532 102.152 46.532 102.188 46.4964C105.852 44.8958 110.083 45.1455 113.922 44.1112C115.95 43.5449 117.872 42.6533 119.86 42.0157C121.818 41.3737 123.775 40.9145 125.768 40.3795C129.143 39.4567 132.058 37.3211 134.658 35.0072C136.08 33.7634 137.395 32.4125 138.639 30.9903C139.954 29.4611 141.02 27.6109 142.656 26.367C143.155 25.832 142.692 25.0161 142.054 25.3014ZM45.2904 91.6236C45.6426 90.2371 46.7126 88.9219 48.2418 88.8149C49.7353 88.7079 51.0505 89.7734 51.6167 91.0886C51.9021 91.6949 51.9734 92.3369 51.7237 92.9745C51.5097 93.6165 51.0149 94.1158 50.5155 94.5394C49.3073 95.4667 47.3501 96.2826 45.8922 95.5024H45.8566C44.8267 94.575 44.9694 92.7962 45.2904 91.6236ZM36.5387 86.0061C36.5387 85.0431 36.717 84.1202 36.9667 83.233C37.1807 82.4484 37.3947 81.5612 37.8895 80.9192C38.1392 80.5625 38.5315 80.2816 38.9595 80.2459C39.4187 80.2103 39.8467 80.4243 40.2747 80.5982C40.8766 80.8835 41.4829 81.2758 41.9466 81.7752C42.9765 82.912 43.2262 84.5126 42.7268 85.9704C42.0893 87.7493 40.3461 88.6722 38.7812 89.5639C37.252 89.1002 36.5387 87.4997 36.5387 86.0061ZM27.7201 95.11C27.6844 95.11 27.6131 95.11 27.5774 95.11C26.2265 95.5024 24.947 94.254 24.198 93.2598C23.4178 92.2299 22.8828 90.8791 23.2751 89.5639C23.6318 88.3512 24.6617 87.4997 25.9412 87.6423C27.3277 87.785 28.8569 88.8149 28.8926 90.3084C28.9639 91.9803 28.0767 93.5095 27.7201 95.11ZM18.1882 100.371C17.4793 100.87 16.8016 101.263 15.9144 101.12C14.2782 100.835 13.177 99.2697 12.749 97.7404C12.3567 96.2469 13.0343 94.789 14.4209 94.147C15.7361 93.5452 17.2296 93.9375 18.1882 94.9674C18.8302 95.6406 19.0798 96.4252 19.1868 97.3124C19.2582 98.1684 19.2938 98.9843 19.539 99.8047C19.0798 99.8403 18.6162 100.09 18.1882 100.371ZM24.5547 116.978C23.9884 116.907 23.3821 116.519 23.2394 115.948C23.1681 115.592 23.2394 115.239 23.2394 114.883C23.2394 114.526 23.1324 114.205 22.9898 113.884C22.6688 113.175 22.5662 112.533 22.7758 111.789C22.9541 111.218 23.2394 110.616 23.7388 110.295C24.305 109.938 25.1253 110.045 25.7272 110.152C26.3692 110.295 26.9042 110.58 27.3277 111.04C28.4334 112.252 28.4334 114.062 28.4691 115.592C27.1851 116.02 26.0125 117.192 24.5547 116.978ZM53.8593 118.405C52.0091 119.684 50.3729 121.249 48.9863 122.988C48.2774 123.915 47.6354 124.874 46.9934 125.873C46.9578 125.944 46.8864 126.046 46.8552 126.118C48.3488 123.309 49.8423 120.572 51.7951 118.012C55.4242 113.211 60.0831 109.582 65.6649 107.272C70.9659 105.065 76.6904 104.071 82.3079 103.148C87.4662 102.292 92.4774 101.405 97.493 100.054C90.2749 104.392 86.3605 113.033 78.5406 116.733C75.7631 118.048 72.6378 118.686 69.7532 119.649C66.9802 120.572 64.6351 121.851 62.2855 123.523C59.7264 125.338 57.1674 127.116 54.1446 128.146C52.2944 128.788 50.4085 129.176 48.4513 129.426C48.594 129.354 48.7367 129.319 48.8793 129.247C50.3372 128.61 51.6167 127.683 52.6511 126.474C52.8294 126.26 52.5441 125.98 52.3301 126.153C51.2289 127.152 49.9449 127.968 48.594 128.539C48.0634 128.753 47.4928 128.931 46.9578 129.069C47.7068 128.146 48.38 127.188 49.129 126.26C50.7652 124.272 52.6511 122.564 54.6395 121C54.7822 120.893 54.6038 120.607 54.4299 120.714C52.3657 122.101 50.5512 123.844 48.8793 125.694C48.0991 126.581 47.3501 127.54 46.6056 128.467C46.3559 128.753 46.1062 129.038 45.8566 129.319C45.7496 129.354 45.6069 129.354 45.4999 129.39C46.2489 128.503 46.7839 127.402 47.3858 126.403C47.9921 125.409 48.6297 124.379 49.343 123.452C50.6939 121.637 52.2944 120.037 54.1089 118.65C54.1803 118.543 54.0019 118.333 53.8593 118.405ZM79.7488 86.4698C80.2794 86.3271 80.7074 85.8991 81.3494 86.3984C81.6347 86.608 81.8799 87.143 81.9869 87.464C82.2722 88.4582 81.7729 90.1301 80.6004 90.1657C79.3565 90.2371 78.8572 88.8862 79.1068 87.8563C79.1425 87.678 79.2138 87.5353 79.2852 87.3927C79.4278 87.2143 79.4992 87.0003 79.6062 86.7863C79.6418 86.6437 79.7132 86.5723 79.7488 86.4698ZM84.5861 86.2914C84.7288 86.1844 84.8313 85.9348 84.9027 85.7921C84.9383 85.7564 84.974 85.7208 85.0097 85.6494C85.081 85.6494 85.1523 85.6494 85.2593 85.6138C85.83 85.3284 86.3962 85.0788 87.0382 85.0788C88.3891 85.1144 88.3177 86.8577 87.7159 87.678C87.1095 88.4939 85.8657 88.7435 85.081 87.999C84.5148 87.5353 84.5504 86.8933 84.5861 86.2914ZM103.788 82.698C104.747 82.0204 105.995 81.1688 107.168 81.2402C108.804 81.3472 110.012 83.0904 109.869 84.6552C109.727 86.5054 107.096 86.6793 105.745 86.3628C103.859 85.8991 103.61 84.3699 103.788 82.698ZM106.062 71.9936C107.275 71.4586 108.518 72.7426 108.911 73.7724C109.12 74.3431 109.089 74.9807 108.875 75.5513C108.59 76.2959 108.269 76.4029 107.453 76.4742C106.276 76.5812 104.961 76.4385 104.466 75.3017C104.43 74.1291 104.925 72.4929 106.062 71.9936ZM99.5572 64.9895C100.444 63.496 102.295 62.9967 103.681 64.2405C104.996 65.4131 104.43 67.7269 103.075 68.5785C102.437 68.9708 100.088 70.0007 99.2719 69.3632C99.2362 69.2918 99.2005 69.2205 99.1292 69.1492C99.0935 69.1135 99.0935 69.1135 99.0579 69.0778C99.0222 69.0422 98.9865 69.0065 98.9509 68.9708C98.2063 68.1193 99.0935 65.7341 99.5572 64.9895ZM96.2848 58.2307C97.6357 56.9512 99.5215 58.409 99.3075 60.0809C99.2005 60.7541 98.7725 61.1821 98.2063 61.5031C97.9567 61.6458 97.6713 61.7528 97.4217 61.8241C96.8198 62.0024 96.4274 62.1094 95.9638 61.6101C95.8568 61.4674 95.7498 61.3604 95.6784 61.1821C95.4644 60.1879 95.4644 59.0154 96.2848 58.2307ZM61.755 87.143C61.755 87.2143 61.7193 87.25 61.7193 87.3213C61.5767 87.6067 61.434 87.892 61.327 88.1729C61.2557 88.2799 61.1843 88.4225 61.0773 88.5295C61.2557 87.8207 61.3983 87.0717 61.541 86.3628C61.541 86.3628 61.541 86.3628 61.5767 86.3628C61.648 86.2914 61.7193 86.2201 61.7907 86.1488C61.7193 86.4698 61.7193 86.822 61.755 87.143ZM64.1001 83.126C63.6364 84.0132 63.0702 84.9406 62.5352 85.8634C62.6065 85.5424 62.7135 85.2571 62.7849 84.9762C63.2485 84.3699 63.6721 83.7279 64.0644 83.0904C64.3854 82.5197 64.7064 81.9535 64.9917 81.3472C64.7064 81.9178 64.4211 82.5197 64.1001 83.126ZM67.4438 64.2405C67.3012 67.4773 67.0515 70.714 66.6235 73.9151C66.1999 76.8309 65.5579 79.7109 64.1357 82.3057C63.8504 82.805 63.5651 83.2687 63.2485 83.7279C63.2842 83.6209 63.3199 83.5496 63.3555 83.447C64.0644 81.4542 64.8134 79.4613 65.2369 77.4015C65.6649 75.266 65.8789 73.0948 65.9859 70.928C66.0929 68.6855 66.1999 66.4117 66.2713 64.1335C66.3783 61.5388 66.4853 58.944 66.5566 56.3448C66.5566 56.2022 66.3069 56.2022 66.3069 56.3448C66.0216 60.9324 65.8433 65.5557 65.4866 70.1434C65.3439 72.3859 65.1299 74.624 64.7064 76.7952C64.4211 78.2887 63.9931 79.6753 63.5339 81.0975C63.5339 81.0975 63.5339 81.0975 63.5339 81.0618C63.6721 80.3173 63.7077 79.5683 63.7791 78.8237C63.9931 75.5513 63.9217 72.3146 63.7077 69.0422C63.7077 68.8282 63.3912 68.8282 63.3912 69.0422C63.5651 72.3146 63.5339 75.6227 63.3199 78.8951C63.2842 79.7109 63.2129 80.5268 63.0345 81.3472C62.8562 82.1274 62.5709 82.8407 62.3212 83.5852C62.1072 84.1916 61.969 84.8692 61.862 85.5424C61.7907 85.6138 61.7193 85.7208 61.648 85.7921C62.0047 83.3757 62.0403 80.8835 62.0047 78.7167C61.9333 73.1661 61.0417 67.6199 61.2913 62.0381C61.541 56.5945 62.9989 50.9413 64.9917 45.8544C66.8732 41.0527 70.2526 37.6421 73.9887 34.2627C73.097 35.8276 72.6378 37.8918 72.1741 39.5235C71.5678 41.6234 71.1442 43.7589 70.9302 45.9257C70.4309 51.084 71.2111 56.2378 70.6449 61.4318C70.1099 66.3761 68.866 71.2134 67.1585 75.8723C66.6235 77.2945 66.0573 78.7167 65.4509 80.1033C65.5936 79.7823 65.7006 79.4613 65.8076 79.1403C66.8375 76.1532 67.1228 72.9164 67.4082 69.7912C67.5508 67.9053 67.6578 65.9837 67.6578 64.0979C67.6578 64.0979 67.4438 64.0979 67.4438 64.2405ZM91.4832 54.8513C91.9825 54.7086 92.513 54.5704 93.0124 54.4634C94.0779 54.2494 95.1479 54.1067 96.2134 53.9997C98.2777 53.8214 100.337 53.7857 102.402 53.7144C102.616 53.7144 102.616 53.3934 102.402 53.3934C100.266 53.3221 98.1707 53.3577 96.0351 53.5361C95.5001 53.5717 94.9339 53.6431 94.3989 53.7144C94.4702 53.6787 94.5059 53.6787 94.5772 53.6431C95.8211 53.2864 97.1007 52.9699 98.3847 52.7559C100.979 52.2565 103.61 51.8999 106.24 51.512C107.734 51.298 109.263 51.0483 110.721 50.6917C110.899 50.656 110.828 50.4063 110.65 50.442C107.983 50.9413 105.282 51.2623 102.58 51.5833C99.9495 51.8999 97.3503 52.2565 94.7912 53.0055C94.7199 53.0055 94.6842 53.0412 94.6129 53.0412C94.8982 52.8985 95.1479 52.7559 95.4332 52.6132C95.6428 52.5419 95.8924 52.4705 96.1064 52.4349C96.8554 52.2565 97.6 52.1139 98.349 51.9355C99.8425 51.6145 101.336 51.2267 102.758 50.6203C102.937 50.549 102.794 50.2637 102.651 50.335C101.193 50.8343 99.6642 51.2267 98.1707 51.5477C97.8853 51.6145 97.5643 51.6859 97.279 51.7215C97.8497 51.4763 98.4203 51.2267 99.0222 50.977C103.075 49.4121 107.346 48.1682 111.684 47.3122C116.557 46.3537 121.425 45.89 126.405 45.8187C131.1 45.7117 135.759 46.2824 140.453 46.2824C136.33 47.5619 132.772 50.1567 128.893 52.0425C124.132 54.3564 119.08 55.1723 113.815 55.1366C108.875 55.1009 103.966 54.4991 99.0222 54.1781C96.4274 53.9997 93.7614 54.2494 91.2692 54.9939C91.3405 54.9583 91.4118 54.9226 91.4832 54.8513ZM134.729 32.9118C131.706 35.6849 128.148 38.244 124.203 39.5235C122.317 40.1299 120.467 40.6292 118.617 41.3024C116.695 42.0514 114.707 42.6889 112.678 43.0813C109.727 43.6163 106.847 43.7946 104.038 44.6818C104.109 44.6105 104.18 44.5392 104.252 44.4678C107.025 43.5093 109.941 43.0099 112.821 42.4081C113.035 42.3724 112.928 42.0514 112.749 42.0871C111.078 42.4081 109.406 42.6889 107.734 43.0099C107.096 43.1526 106.419 43.2596 105.781 43.4379C106.597 42.9743 107.453 42.5463 108.304 42.1584C110.44 41.1597 112.571 40.1655 114.707 39.1357C114.885 39.0643 114.742 38.8147 114.564 38.886C112.286 39.8802 110.048 40.9145 107.769 41.9444C107.096 42.2654 106.419 42.5106 105.71 42.7959C105.745 42.7603 105.817 42.6889 105.852 42.6533C106.205 42.2654 106.633 41.9087 107.061 41.5877C107.912 40.9859 108.839 40.4509 109.834 40.1299C110.012 40.0585 109.941 39.7732 109.762 39.8445C108.804 40.0942 107.912 40.4865 107.096 41.0171C107.662 40.2369 108.233 39.4567 108.875 38.7077C111.613 35.3996 115.522 33.7634 119.473 32.3412C126.013 29.9961 133.164 29.7107 139.704 27.4325C138.033 29.2114 136.539 31.2399 134.729 32.9118Z" fill="#B27409"/>
</g>
<g clip-path="url(#clip0_157_4)">
<rect width="92.5285" height="86.328" transform="translate(325.892 289.566) rotate(-173.278)" fill="white" style="mix-blend-mode:lighten"/>
<g clip-path="url(#clip1_157_4)">
<mask id="mask2_157_4" style="mask-type:luminance" maskUnits="userSpaceOnUse" x="237" y="195" width="87" height="87">
<path d="M314.83 281.037L237.333 271.902L246.36 195.322L323.856 204.456L314.83 281.037Z" fill="white"/>
</mask>
<g mask="url(#mask2_157_4)">
<path d="M238.477 271.436C240.861 270.639 243.34 270.448 245.802 270.231C248.328 270.024 250.826 269.682 253.257 269.001C255.275 268.422 257.3 267.781 258.875 266.274C260.355 264.866 261.555 263.138 263.273 262.042C263.317 262.025 263.343 261.984 263.348 261.94C263.437 261.907 263.526 261.873 263.615 261.842C263.683 261.806 263.73 261.768 263.759 261.705C267.861 260.319 271.625 257.506 274.916 254.751C278.705 251.544 282.28 248.009 285.616 244.332C286.128 243.756 286.642 243.177 287.154 242.6C286.732 243.32 286.304 244.061 285.919 244.807C284.526 247.457 283.428 250.298 282.706 253.204C281.957 256.13 281.848 259.042 281.456 262.01C281.233 263.72 280.805 265.363 280.174 266.959C279.68 268.266 278.736 269.627 278.511 270.987C278.506 271.031 278.525 271.055 278.543 271.079C278.512 271.161 278.607 271.261 278.698 271.205C281.216 269.611 283.583 267.869 285.184 265.242C286.763 262.635 288.085 259.513 288.815 256.541C289.69 253.082 289.583 249.507 289.83 245.973C289.94 244.315 290.114 242.662 290.476 241.034C290.84 239.362 291.556 237.971 292.201 236.443C296.264 231.115 299.882 225.384 302.633 219.309C303.208 218.034 303.76 216.759 304.254 215.452C304.244 215.892 304.217 216.305 304.231 216.726C304.246 219.102 304.624 221.479 305.333 223.738C305.407 223.99 305.505 224.244 305.602 224.498C305.597 224.541 305.611 224.606 305.605 224.65C305.387 225.418 305.594 226.366 305.434 227.183C305.205 228.408 304.724 229.606 304.03 230.646C302.898 232.338 300.971 233.233 300.038 235.036C299.235 234.479 298.081 234.74 297.252 235.124C296.355 235.548 295.705 236.395 295.789 237.461C295.874 238.546 296.803 239.472 297.799 239.653C298.837 239.841 299.788 239.14 300.275 238.23C300.742 237.339 300.971 235.938 300.217 235.146C300.944 233.999 302.155 233.439 303.124 232.585C303.952 231.847 304.654 230.918 305.196 229.926C305.334 229.655 305.475 229.363 305.594 229.071C305.388 230.103 305.077 231.119 304.789 232.12C304.138 234.397 303.697 236.719 303.735 239.079C303.711 239.098 303.685 239.139 303.68 239.182C302.668 239.502 301.548 240.031 301.004 241.043C300.514 241.953 300.528 243.098 301.038 243.994C301.283 244.42 301.64 244.812 302.078 245.04C302.48 245.242 303.077 245.379 303.488 245.14C303.94 244.888 304.232 244.393 304.456 243.936C304.737 243.352 304.981 242.7 305.1 242.055C305.319 240.914 305.038 239.538 303.908 239.055C304.129 237.716 304.227 236.344 304.512 235.012C304.819 233.488 305.349 232.034 305.779 230.543C306.098 229.459 306.479 228.031 306.551 226.697C308.038 229.908 309.903 232.943 310.414 236.521C310.161 237.043 310.011 237.618 309.797 238.166C309.61 238.671 309.337 239.188 309.312 239.758C309.258 240.764 310.119 241.546 310.976 241.824C311.875 242.106 312.725 241.721 313.186 240.874C313.647 240.004 313.532 239.001 313.105 238.137C312.66 237.249 311.816 236.138 310.709 236.36C310.644 233.667 309.634 231.284 308.535 228.911C311.032 230.371 313.12 232.266 315.304 234.217C315.297 234.282 315.331 234.352 315.391 234.381C315.412 234.384 315.433 234.386 315.431 234.408C315.574 234.998 315.46 235.6 315.473 236.216C315.476 236.724 315.588 237.197 315.835 237.624C316.312 238.427 317.245 238.956 318.156 238.777C319.023 238.614 319.793 237.848 319.961 236.966C320.144 235.953 319.653 234.707 318.905 234.048C318.485 233.668 317.892 233.468 317.311 233.551C316.73 233.637 316.093 234.354 315.492 234.065C315.471 234.062 315.45 234.06 315.45 234.06C313.587 231.53 310.828 229.6 308.122 228.115C307.618 226.999 307.089 225.903 306.674 224.754C305.858 222.504 305.378 220.115 305.258 217.705C305.247 217.615 305.258 217.528 305.247 217.439C305.35 217.649 305.455 217.838 305.56 218.024C306.035 219.026 306.537 219.99 307.15 220.897C308.179 222.425 309.534 223.685 311.323 224.138L311.321 224.16C311.18 225.177 311.073 226.262 311.579 227.179C311.789 227.557 312.088 227.879 312.469 228.078C312.891 228.28 313.465 228.436 313.92 228.338C314.81 228.156 315.347 227.031 315.3 226.168C315.286 225.923 315.206 225.696 315.13 225.444C315.04 225.147 315.113 224.891 315.148 224.589C315.2 224.154 315.01 223.781 314.7 223.524C313.771 222.775 312.516 223.551 311.532 223.81C311.443 223.844 311.394 223.904 311.386 223.969C309.443 223.189 308.1 221.646 307.11 219.793C306.694 219.018 306.323 218.203 305.954 217.39C305.717 216.879 305.508 216.303 305.232 215.788C305.259 215.196 305.286 214.606 305.355 214.021C305.441 213.108 305.753 212.089 305.734 211.163C306.137 209.89 306.499 208.614 306.842 207.334C307.163 206.051 307.633 204.744 307.454 203.403C307.395 203.001 306.808 202.778 306.571 203.166C306.01 204.134 305.869 205.151 305.592 206.241C305.273 207.524 304.931 208.802 304.526 210.075C304.181 211.2 303.797 212.319 303.389 213.437C299.858 213.021 296.434 213.85 293.355 215.706C291.6 216.754 289.969 217.816 287.954 218.194C286.179 218.514 284.387 218.432 282.629 218.975C276.846 220.755 273.835 227.263 268.073 229.223C267.896 229.29 267.986 229.607 268.161 229.561C271.982 228.605 276.062 228.667 279.964 228.468C283.394 228.302 286.85 227.918 290.157 226.833C295.293 225.13 299.302 221.158 302.201 216.509C302.144 216.635 302.108 216.76 302.05 216.886C300.136 221.455 297.847 225.936 295.195 230.109C293.79 232.32 292.306 234.497 290.722 236.599C289.959 236.97 289.324 237.667 288.634 238.134C287.711 238.773 286.713 239.336 285.7 239.834C284.913 240.224 284.11 240.57 283.289 240.89C282.56 240.76 281.85 240.676 281.125 240.547C281.046 240.493 280.967 240.443 280.867 240.387C280.676 240.232 280.461 240.074 280.292 239.878C280.009 239.58 279.733 239.241 279.452 238.921C279.478 238.88 279.501 238.861 279.527 238.82C279.663 238.748 279.784 238.629 279.901 238.533C280.416 238.111 280.644 237.259 280.466 236.601C280.231 235.735 279.213 235.198 278.453 235.724C277.645 236.268 277.45 237.585 277.902 238.408C278.092 238.783 278.421 239.216 278.866 239.227C278.973 239.218 279.08 239.208 279.19 239.155C279.42 239.554 279.674 239.915 279.974 240.237C279.893 240.206 279.811 240.196 279.73 240.165C278.653 239.773 277.63 239.277 276.581 238.826C276.607 238.784 276.652 238.768 276.678 238.727C276.727 238.666 276.824 238.567 276.858 238.461C277.183 237.863 277.066 237.057 276.525 236.619C275.864 236.1 274.887 236.315 274.423 237.008C274.013 237.599 273.889 238.836 274.558 239.29C275.009 239.586 276.128 239.63 276.446 239.072C277.967 240.023 279.964 241.226 281.889 241.431C281.094 241.709 280.277 241.988 279.485 242.245C278.315 242.636 277.13 242.979 275.939 243.368C275.221 242.997 274.338 242.937 273.57 242.802C272.386 242.597 271.207 242.369 270.028 242.297C268.277 241.696 267.198 239.895 265.449 239.273C265.478 239.21 265.486 239.144 265.47 239.098C265.951 238.055 265.804 236.96 264.734 236.351C263.821 235.824 262.074 235.729 261.346 236.677C260.694 237.546 261 239.275 261.905 239.845C262.87 240.463 264.323 240.196 265.209 239.509C265.939 240.144 266.77 240.639 267.521 241.276C267.926 241.632 268.327 241.986 268.76 242.279C267.315 242.308 265.76 242.563 264.584 243.37C264.537 242.507 263.417 242.113 262.658 242.087C262.236 242.081 261.665 242.058 261.349 242.418C260.984 242.813 260.734 243.49 260.757 244.019C260.796 244.947 261.572 246.095 262.528 246.075C263.717 246.061 264.538 244.84 264.671 243.711C265.603 243.358 266.51 243.026 267.5 242.9C268.552 242.782 269.582 242.862 270.624 242.984C271.607 243.1 272.561 243.276 273.536 243.457C273.952 243.528 274.382 243.645 274.819 243.719C274.288 243.899 273.76 244.079 273.229 244.256C273.148 244.225 273.043 244.235 272.949 244.312C272.925 244.331 272.902 244.35 272.899 244.372C270.929 245.086 269.025 245.961 267.297 247.144C266.942 246.375 264.717 246.906 264.246 247.135C263.098 247.706 262.32 249.461 263.049 250.645C263.812 251.901 265.406 251.496 266.351 250.662C266.965 250.116 267.961 248.342 267.34 247.478C268.904 246.628 270.528 245.962 272.145 245.361C271.736 246.148 271.477 247.086 271.128 247.88C270.483 249.411 269.704 250.792 268.647 252.032C268.647 252.032 268.626 252.03 268.628 252.008C268.592 251.96 268.573 251.935 268.539 251.887C267.759 251.111 265.852 251.832 265.506 252.804C265.264 253.415 265.424 254.225 265.737 254.788C266.05 255.377 266.776 255.506 267.365 255.355C267.957 255.204 268.359 254.835 268.606 254.357C268.943 253.848 269 252.998 268.816 252.402C268.818 252.381 268.818 252.381 268.8 252.356C269.85 251.534 270.572 250.434 271.161 249.227C271.497 248.541 271.791 247.826 272.066 247.111C272.342 246.396 272.586 245.59 273.076 245.011C275.596 244.141 278.134 243.451 280.722 242.7C282.787 242.085 284.804 241.333 286.721 240.349C287.398 239.99 288.08 239.607 288.723 239.179C284.942 243.922 280.772 248.38 276.395 252.46C275.204 253.574 273.974 254.659 272.709 255.676C271.392 256.073 270.063 256.376 268.704 256.415C267.256 256.465 265.87 256.191 264.47 255.85C261.664 255.21 258.851 254.44 255.975 254.211C253.332 253.988 250.7 254.204 248.176 255.139C245.583 256.086 243.117 257.424 240.522 258.414C240.483 258.388 240.462 258.385 240.42 258.38C240.378 258.375 240.355 258.395 240.31 258.411C240.266 258.428 240.242 258.448 240.219 258.467C240.172 258.505 240.143 258.568 240.156 258.636C240.086 258.694 240.068 258.846 240.191 258.883C242.975 259.892 246.134 260.22 249.068 260.5C252.023 260.782 255.022 260.851 257.976 260.604C260.67 260.395 263.334 259.896 265.928 259.101C267.205 258.7 268.466 258.256 269.692 257.72C269.938 257.616 270.208 257.494 270.475 257.393C270.312 257.506 270.171 257.622 270.012 257.713C267.957 259.142 265.774 260.227 263.535 261.259C263.493 261.254 263.451 261.249 263.428 261.269C261.159 261.991 258.691 261.546 256.361 261.911C255.128 262.116 253.935 262.527 252.721 262.778C251.524 263.034 250.341 263.178 249.132 263.367C247.082 263.696 245.215 264.796 243.522 266.028C242.596 266.688 241.726 267.421 240.893 268.202C240.01 269.044 239.251 270.099 238.2 270.744C237.868 271.036 238.082 271.566 238.477 271.436ZM300.106 237.683C299.799 238.505 299.076 239.233 298.17 239.192C297.285 239.154 296.588 238.413 296.35 237.571C296.226 237.182 296.23 236.785 296.423 236.414C296.595 236.037 296.921 235.766 297.245 235.543C298.022 235.061 299.231 234.699 300.031 235.276L300.052 235.278C300.591 235.915 300.379 236.99 300.106 237.683ZM304.845 241.716C304.776 242.303 304.605 242.854 304.394 243.378C304.212 243.842 304.022 244.368 303.685 244.725C303.513 244.925 303.262 245.07 303.008 245.062C302.736 245.052 302.5 244.891 302.261 244.756C301.928 244.54 301.599 244.259 301.363 243.922C300.839 243.157 300.808 242.164 301.206 241.309C301.709 240.268 302.799 239.826 303.783 239.39C304.648 239.779 304.952 240.805 304.845 241.716ZM310.681 236.774C310.702 236.776 310.744 236.781 310.765 236.783C311.587 236.638 312.249 237.488 312.618 238.146C313.003 238.828 313.22 239.689 312.895 240.464C312.598 241.179 311.931 241.627 311.19 241.452C310.385 241.269 309.561 240.535 309.647 239.621C309.726 238.596 310.357 237.725 310.681 236.774ZM316.661 234.225C317.113 233.969 317.54 233.777 318.051 233.925C318.992 234.213 319.526 235.244 319.668 236.206C319.791 237.144 319.288 237.986 318.427 238.282C317.611 238.558 316.762 238.215 316.272 237.521C315.943 237.066 315.853 236.57 315.854 236.021C315.874 235.494 315.911 234.994 315.826 234.477C316.099 234.487 316.389 234.366 316.661 234.225ZM314.114 223.654C314.441 223.737 314.77 224.015 314.813 224.373C314.829 224.596 314.762 224.805 314.736 225.023C314.71 225.241 314.75 225.444 314.811 225.649C314.949 226.104 314.963 226.503 314.786 226.942C314.64 227.278 314.429 227.626 314.113 227.787C313.754 227.965 313.28 227.843 312.934 227.736C312.567 227.605 312.273 227.393 312.057 227.084C311.495 226.268 311.625 225.164 311.714 224.228C312.499 224.056 313.273 223.422 314.114 223.654ZM296.996 220.754C298.176 220.101 299.25 219.26 300.189 218.296C300.673 217.779 301.119 217.239 301.568 216.674C301.594 216.633 301.643 216.576 301.667 216.534C300.587 218.144 299.513 219.71 298.181 221.136C295.703 223.814 292.705 225.705 289.259 226.727C285.985 227.706 282.55 227.916 279.182 228.089C276.09 228.254 273.081 228.448 270.037 228.925C274.59 226.779 277.512 221.78 282.373 220.064C284.1 219.454 285.982 219.282 287.746 218.894C289.442 218.523 290.912 217.905 292.413 217.048C294.047 216.119 295.679 215.211 297.529 214.792C298.662 214.529 299.799 214.423 300.967 214.406C300.878 214.44 300.791 214.451 300.702 214.485C299.8 214.773 298.981 215.25 298.287 215.915C298.166 216.033 298.314 216.225 298.452 216.133C299.171 215.6 299.984 215.192 300.819 214.937C301.146 214.843 301.494 214.774 301.819 214.727C301.312 215.238 300.848 215.776 300.341 216.29C299.236 217.389 298.005 218.3 296.724 219.117C296.633 219.172 296.717 219.359 296.827 219.306C298.14 218.603 299.331 217.665 300.447 216.652C300.969 216.165 301.478 215.632 301.982 215.118C302.149 214.962 302.317 214.805 302.484 214.651C302.549 214.637 302.633 214.646 302.698 214.632C302.194 215.121 301.801 215.756 301.375 216.323C300.948 216.888 300.499 217.472 300.013 217.988C299.089 219.001 298.033 219.867 296.867 220.587C296.818 220.647 296.907 220.787 296.996 220.754ZM279.487 238.44C279.165 238.49 278.883 238.722 278.541 238.373C278.389 238.225 278.283 237.882 278.243 237.679C278.147 237.052 278.561 236.067 279.252 236.127C279.988 236.169 280.185 237.028 279.964 237.639C279.93 237.745 279.878 237.827 279.826 237.909C279.729 238.008 279.672 238.134 279.594 238.257C279.562 238.342 279.515 238.38 279.487 238.44ZM276.632 238.214C276.54 238.269 276.462 238.414 276.41 238.497C276.386 238.516 276.363 238.535 276.337 238.576C276.295 238.571 276.253 238.566 276.187 238.581C275.832 238.715 275.481 238.828 275.104 238.784C274.312 238.668 274.48 237.61 274.892 237.151C275.307 236.696 276.056 236.63 276.464 237.138C276.763 237.46 276.696 237.849 276.632 238.214ZM265.09 239.076C264.478 239.423 263.683 239.856 262.999 239.731C262.046 239.552 261.461 238.405 261.657 237.461C261.874 236.342 263.432 236.418 264.203 236.705C265.278 237.118 265.315 238.068 265.09 239.076ZM262.984 245.448C262.233 245.69 261.595 244.821 261.438 244.165C261.356 243.803 261.42 243.416 261.587 243.083C261.808 242.648 262.004 242.605 262.489 242.618C263.188 242.635 263.951 242.813 264.16 243.54C264.097 244.258 263.688 245.222 262.984 245.448ZM266.303 250.171C265.674 251.02 264.551 251.197 263.826 250.342C263.137 249.535 263.636 248.163 264.494 247.738C264.897 247.543 266.351 247.077 266.785 247.523C266.801 247.568 266.817 247.614 266.853 247.663C266.872 247.687 266.872 247.687 266.89 247.711C266.909 247.736 266.927 247.76 266.945 247.784C267.322 248.355 266.629 249.749 266.303 250.171ZM267.74 254.52C266.854 255.207 265.851 254.187 266.097 253.182C266.208 252.779 266.49 252.547 266.846 252.391C267.003 252.321 267.178 252.275 267.33 252.249C267.697 252.182 267.935 252.144 268.171 252.481C268.224 252.575 268.279 252.648 268.308 252.762C268.363 253.383 268.278 254.098 267.74 254.52ZM290.109 239.276C290.114 239.232 290.138 239.213 290.143 239.17C290.247 239.005 290.352 238.841 290.435 238.677C290.484 238.617 290.536 238.535 290.607 238.477C290.451 238.897 290.313 239.344 290.179 239.767C290.179 239.767 290.179 239.767 290.158 239.764C290.111 239.803 290.064 239.841 290.017 239.88C290.082 239.689 290.107 239.474 290.109 239.276ZM288.442 241.564C288.778 241.055 289.178 240.528 289.559 240.002C289.494 240.193 289.41 240.36 289.348 240.526C289.032 240.864 288.737 241.226 288.461 241.588C288.231 241.914 288.002 242.237 287.79 242.587C287.999 242.259 288.21 241.911 288.442 241.564ZM285.12 252.852C285.436 250.887 285.815 248.93 286.297 247.007C286.756 245.258 287.34 243.546 288.362 242.062C288.566 241.777 288.767 241.514 288.986 241.255C288.957 241.318 288.931 241.359 288.903 241.419C288.343 242.586 287.76 243.75 287.363 244.977C286.958 246.25 286.676 247.559 286.457 248.873C286.233 250.234 286.007 251.613 285.801 252.998C285.551 254.573 285.302 256.149 285.073 257.729C285.063 257.816 285.21 257.834 285.22 257.747C285.717 254.968 286.155 252.16 286.694 249.387C286.939 248.029 287.226 246.678 287.631 245.383C287.906 244.492 288.257 243.676 288.629 242.84C288.629 242.84 288.629 242.84 288.627 242.862C288.492 243.307 288.417 243.761 288.322 244.21C287.96 246.191 287.77 248.171 287.66 250.182C287.645 250.312 287.831 250.334 287.846 250.204C287.979 248.195 288.235 246.18 288.596 244.198C288.676 243.703 288.777 243.211 288.94 242.723C289.101 242.259 289.32 241.844 289.521 241.407C289.69 241.052 289.82 240.648 289.931 240.245C289.978 240.206 290.028 240.146 290.075 240.107C289.691 241.556 289.491 243.074 289.356 244.398C288.999 247.789 289.125 251.234 288.577 254.621C288.038 257.924 286.775 261.272 285.238 264.237C283.788 267.035 281.557 268.881 279.118 270.684C279.755 269.791 280.173 268.564 280.563 267.601C281.07 266.362 281.473 265.089 281.754 263.782C282.418 260.67 282.33 257.472 283.037 254.343C283.706 251.364 284.785 248.5 286.123 245.776C286.54 244.946 286.975 244.118 287.431 243.314C287.324 243.5 287.238 243.688 287.152 243.877C286.332 245.627 285.932 247.582 285.54 249.468C285.32 250.609 285.119 251.774 284.984 252.924C284.984 252.924 285.109 252.939 285.12 252.852ZM270.318 256.914C270.015 256.966 269.693 257.014 269.392 257.045C268.75 257.101 268.111 257.114 267.478 257.106C266.252 257.071 265.039 256.951 263.821 256.851C263.695 256.836 263.672 257.032 263.798 257.047C265.047 257.238 266.281 257.362 267.549 257.401C267.866 257.416 268.204 257.412 268.523 257.405C268.479 257.422 268.458 257.42 268.413 257.437C267.657 257.568 266.882 257.672 266.112 257.714C264.552 257.839 262.98 257.874 261.407 257.929C260.514 257.956 259.597 258.002 258.715 258.119C258.608 258.128 258.632 258.285 258.739 258.276C260.341 258.156 261.952 258.147 263.563 258.139C265.131 258.128 266.684 258.09 268.242 257.811C268.284 257.816 268.307 257.796 268.349 257.801C268.171 257.868 268.014 257.938 267.836 258.005C267.708 258.034 267.556 258.061 267.428 258.068C266.975 258.124 266.527 258.16 266.074 258.217C265.174 258.309 264.268 258.442 263.389 258.714C263.279 258.745 263.342 258.929 263.431 258.895C264.324 258.692 265.251 258.558 266.151 258.466C266.324 258.445 266.517 258.423 266.688 258.421C266.335 258.532 265.981 258.644 265.61 258.755C263.116 259.429 260.517 259.892 257.906 260.113C254.974 260.36 252.08 260.306 249.148 260.005C246.382 259.745 243.685 259.074 240.926 258.749C243.442 258.254 245.719 256.918 248.134 256.036C251.098 254.954 254.125 254.807 257.216 255.193C260.117 255.557 262.958 256.264 265.84 256.802C267.352 257.091 268.936 257.123 270.454 256.842C270.41 256.858 270.366 256.875 270.318 256.914ZM243.329 267.301C245.305 265.819 247.579 264.504 249.99 263.997C251.141 263.758 252.265 263.581 253.4 263.299C254.583 262.975 255.797 262.724 257.018 262.625C258.79 262.503 260.496 262.594 262.21 262.247C262.163 262.286 262.116 262.324 262.069 262.363C260.37 262.756 258.621 262.858 256.885 263.026C256.757 263.033 256.797 263.236 256.904 263.227C257.91 263.147 258.912 263.091 259.918 263.011C260.303 262.968 260.709 262.95 261.096 262.885C260.583 263.112 260.05 263.313 259.521 263.491C258.195 263.952 256.871 264.411 255.542 264.891C255.432 264.923 255.498 265.085 255.608 265.054C257.018 264.605 258.408 264.129 259.82 263.659C260.239 263.509 260.655 263.407 261.092 263.282C261.068 263.301 261.021 263.34 260.998 263.359C260.763 263.571 260.486 263.759 260.211 263.925C259.668 264.233 259.084 264.496 258.477 264.622C258.367 264.654 258.388 264.833 258.498 264.801C259.08 264.716 259.632 264.538 260.149 264.271C259.76 264.708 259.369 265.144 258.938 265.556C257.091 267.385 254.676 268.112 252.253 268.706C248.241 269.683 244.018 269.362 240.011 270.299C241.122 269.329 242.145 268.195 243.329 267.301Z" fill="#B27409"/>
</g>
</g>
</g>
<path d="M275.785 168.78C275.785 180.588 273.325 191.029 268.405 200.104C263.485 209.069 256.543 216.121 247.577 221.26C238.612 226.399 228.007 228.968 215.761 228.968C203.625 228.968 193.184 226.453 184.437 221.424C175.691 216.395 168.967 209.507 164.265 200.76C159.564 191.904 157.213 181.845 157.213 170.584C157.213 158.995 159.673 148.663 164.593 139.588C169.513 130.513 176.456 123.407 185.421 118.268C194.496 113.02 205.156 110.396 217.401 110.396C229.428 110.396 239.76 112.911 248.397 117.94C257.144 122.86 263.868 129.748 268.569 138.604C273.38 147.351 275.785 157.409 275.785 168.78ZM261.189 170.42C261.189 163.532 260.369 156.808 258.729 150.248C257.089 143.688 254.52 137.784 251.021 132.536C247.523 127.288 242.931 123.133 237.245 120.072C231.56 116.901 224.672 115.316 216.581 115.316C208.491 115.316 201.603 116.901 195.917 120.072C190.232 123.133 185.64 127.288 182.141 132.536C178.643 137.784 176.073 143.633 174.433 150.084C172.793 156.425 171.973 162.876 171.973 169.436C171.973 175.996 172.793 182.501 174.433 188.952C176.073 195.403 178.697 201.307 182.305 206.664C185.913 212.021 190.615 216.285 196.409 219.456C202.204 222.627 209.201 224.212 217.401 224.212C225.492 224.212 232.325 222.681 237.901 219.62C243.587 216.559 248.124 212.513 251.513 207.484C254.903 202.345 257.363 196.551 258.893 190.1C260.424 183.649 261.189 177.089 261.189 170.42Z" fill="#B27409"/>
<path d="M188.92 168.12C188.483 171.619 187.991 175.719 187.444 180.42C187.007 185.012 186.679 189.167 186.46 192.884C181.54 193.868 175.8 194.961 169.24 196.164C162.79 197.367 156.011 197.968 148.904 197.968C135.894 197.968 124.687 195.563 115.284 190.752C105.991 185.832 98.8297 178.999 93.8004 170.252C88.8804 161.505 86.4204 151.283 86.4204 139.584C86.4204 127.776 88.9351 117.389 93.9644 108.424C98.9937 99.3493 106.155 92.2427 115.448 87.104C124.851 81.9653 136.112 79.396 149.232 79.396C152.731 79.396 156.394 79.6147 160.22 80.052C164.047 80.38 168.366 80.9813 173.176 81.856C175.035 82.184 176.839 82.512 178.588 82.84C180.338 83.168 182.196 83.332 184.164 83.332C184.492 83.332 184.82 83.332 185.148 83.332C185.586 83.332 186.132 83.2773 186.788 83.168C186.898 86.6667 187.062 90.9307 187.28 95.96C187.608 100.989 187.882 105.527 188.1 109.572C187.444 109.681 186.898 109.791 186.46 109.9C186.023 109.9 185.531 109.9 184.984 109.9C183.782 101.481 180.119 95.0853 173.996 90.712C167.874 86.3387 159.455 84.152 148.74 84.152C139.556 84.152 131.903 85.6827 125.78 88.744C119.658 91.696 114.792 95.7413 111.184 100.88C107.576 105.909 105.007 111.704 103.476 118.264C101.946 124.715 101.18 131.384 101.18 138.272C101.18 145.707 102 152.759 103.64 159.428C105.39 165.988 108.232 171.783 112.168 176.812C116.104 181.841 121.298 185.832 127.748 188.784C134.199 191.627 142.18 193.048 151.692 193.048C162.516 193.048 170.443 190.971 175.472 186.816C180.502 182.661 183.836 176.429 185.476 168.12C185.695 168.12 185.914 168.12 186.132 168.12C186.46 168.011 186.788 167.956 187.116 167.956C187.335 167.956 187.608 168.011 187.936 168.12C188.264 168.12 188.592 168.12 188.92 168.12Z" fill="#B27409"/>
<defs>
<clipPath id="clip0_157_4">
<rect width="92.5285" height="86.328" fill="white" transform="translate(325.892 289.566) rotate(-173.278)"/>
</clipPath>
<clipPath id="clip1_157_4">
<rect width="79.2215" height="75.3545" fill="white" transform="translate(312.792 283.712) rotate(-173.278)"/>
</clipPath>
</defs>
</svg>
